<svg width="23" height="24" viewBox="0 0 23 24" fill="none" xmlns="http://www.w3.org/2000/svg">
<g clip-path="url(#clip0_368_2999)">
<path d="M12.296 0.0691263C10.862 -0.289374 9.53 0.795126 9.434 2.19913C9.326 3.77563 9.089 5.22313 8.792 6.08413C8.6045 6.62413 8.0735 7.60363 7.232 8.54263C6.3965 9.47713 5.309 10.3096 4.0355 10.6576C3.0275 10.9321 2 11.8051 2 13.0801V19.0816C2 20.3491 3.023 21.2776 4.172 21.3991C5.777 21.5701 6.518 22.0216 7.274 22.4836L7.346 22.5286C7.754 22.7761 8.213 23.0506 8.801 23.2546C9.3965 23.4586 10.0925 23.5801 11 23.5801H16.25C17.6555 23.5801 18.6485 22.8646 19.151 21.9841C19.3939 21.5686 19.5251 21.0974 19.532 20.6161C19.532 20.3881 19.4975 20.1481 19.4165 19.9201C19.718 19.5256 19.9865 19.0531 20.1485 18.5686C20.3135 18.0736 20.4065 17.4256 20.1545 16.8451C20.258 16.6501 20.3345 16.4416 20.393 16.2406C20.5085 15.8356 20.5625 15.3886 20.5625 14.9551C20.5625 14.5231 20.5085 14.0776 20.393 13.6711C20.3405 13.4843 20.2712 13.3025 20.186 13.1281C20.4486 12.7544 20.6176 12.3231 20.6787 11.8704C20.7398 11.4178 20.6912 10.9571 20.537 10.5271C20.228 9.63913 19.514 8.87713 18.737 8.61913C17.4665 8.19613 16.0325 8.20513 14.963 8.30263C14.741 8.32261 14.5194 8.34761 14.2985 8.37763C14.8189 6.14921 14.7869 3.8274 14.2055 1.61413C14.1043 1.25951 13.9103 0.938354 13.6434 0.683871C13.3765 0.429388 13.0465 0.250817 12.6875 0.166626L12.296 0.0691263ZM16.25 22.0816H11C10.235 22.0816 9.7055 21.9781 9.29 21.8356C8.8685 21.6901 8.531 21.4936 8.126 21.2461L8.066 21.2101C7.2335 20.7016 6.269 20.1136 4.331 19.9081C3.8315 19.8541 3.5 19.4731 3.5 19.0831V13.0801C3.5 12.6991 3.839 12.2656 4.43 12.1051C6.0725 11.6551 7.3955 10.6111 8.351 9.54313C9.3035 8.47813 9.947 7.33063 10.208 6.57613C10.5725 5.52613 10.8185 3.92413 10.931 2.30113C10.9685 1.75813 11.471 1.41013 11.9315 1.52413L12.3245 1.62313C12.5645 1.68313 12.7115 1.83763 12.7565 2.00563C13.3691 4.33966 13.2935 6.80105 12.539 9.09313C12.4963 9.22061 12.4886 9.35722 12.5168 9.48868C12.545 9.62013 12.608 9.74159 12.6993 9.84034C12.7905 9.93909 12.9066 10.0115 13.0354 10.05C13.1642 10.0885 13.301 10.0916 13.4315 10.0591L13.436 10.0576L13.457 10.0531L13.544 10.0321C14.0569 9.9232 14.5758 9.84457 15.098 9.79663C16.0925 9.70663 17.2835 9.71563 18.263 10.0426C18.5255 10.1296 18.938 10.4926 19.118 11.0176C19.2785 11.4796 19.2485 12.0226 18.719 12.5506L18.1895 13.0801L18.719 13.6111C18.7835 13.6756 18.8765 13.8226 18.95 14.0836C19.022 14.3341 19.0625 14.6386 19.0625 14.9551C19.0625 15.2731 19.022 15.5761 18.95 15.8281C18.875 16.0891 18.7835 16.2361 18.719 16.3006L18.1895 16.8301L18.719 17.3611C18.7895 17.4316 18.8825 17.6266 18.7265 18.0931C18.5639 18.5455 18.3055 18.9574 17.969 19.3006L17.4395 19.8301L17.969 20.3611C17.978 20.3686 18.0305 20.4361 18.0305 20.6161C18.0238 20.8361 17.9614 21.0509 17.849 21.2401C17.6015 21.6721 17.0945 22.0816 16.25 22.0816Z" fill="#514FB5"/>
</g>
<defs>
<clipPath id="clip0_368_2999">
<rect width="22.7043" height="23.5801" fill="white"/>
</clipPath>
</defs>
</svg>
