<svg width="24" height="26" viewBox="0 0 24 26" fill="none" xmlns="http://www.w3.org/2000/svg">
<path d="M22.9375 18.0781V1.67188C22.9375 1.02246 22.415 0.5 21.7656 0.5H5.75C3.16211 0.5 1.0625 2.59961 1.0625 5.1875V20.8125C1.0625 23.4004 3.16211 25.5 5.75 25.5H21.7656C22.415 25.5 22.9375 24.9775 22.9375 24.3281V23.5469C22.9375 23.1807 22.7666 22.8486 22.5029 22.6338C22.2979 21.8818 22.2979 19.7383 22.5029 18.9863C22.7666 18.7764 22.9375 18.4443 22.9375 18.0781ZM7.3125 7.04297C7.3125 6.88184 7.44434 6.75 7.60547 6.75H17.957C18.1182 6.75 18.25 6.88184 18.25 7.04297V8.01953C18.25 8.18066 18.1182 8.3125 17.957 8.3125H7.60547C7.44434 8.3125 7.3125 8.18066 7.3125 8.01953V7.04297ZM7.3125 10.168C7.3125 10.0068 7.44434 9.875 7.60547 9.875H17.957C18.1182 9.875 18.25 10.0068 18.25 10.168V11.1445C18.25 11.3057 18.1182 11.4375 17.957 11.4375H7.60547C7.44434 11.4375 7.3125 11.3057 7.3125 11.1445V10.168ZM19.6855 22.375H5.75C4.88574 22.375 4.1875 21.6768 4.1875 20.8125C4.1875 19.9531 4.89062 19.25 5.75 19.25H19.6855C19.5928 20.085 19.5928 21.54 19.6855 22.375Z" fill="#514FB5"/>
</svg>
