<svg width="24" height="24" viewBox="0 0 24 24" fill="none" xmlns="http://www.w3.org/2000/svg">
<path d="M21.6004 21.38L21.6426 21.5347L21.767 21.6361C21.9088 21.7516 22 21.9304 22 22.125V22.875C22 23.2223 21.7223 23.5 21.375 23.5H6C3.79177 23.5 2 21.7082 2 19.5V4.5C2 2.29177 3.79177 0.5 6 0.5H21.375C21.7223 0.5 22 0.777705 22 1.125V16.875C22 17.0706 21.9082 17.2467 21.7713 17.3557L21.6434 17.4576L21.6004 17.6153C21.4828 18.0466 21.4352 18.8008 21.4352 19.4977C21.4352 20.1945 21.4828 20.9487 21.6004 21.38ZM19.3781 21.5H19.9368L19.8751 20.9448C19.7901 20.1799 19.7901 18.8201 19.8751 18.0552L19.9368 17.5H19.3781H6C4.89886 17.5 4 18.3989 4 19.5C4 20.6058 4.89417 21.5 6 21.5H19.3781ZM7.78125 5.5C7.35042 5.5 7 5.85042 7 6.28125V7.21875C7 7.64958 7.35042 8 7.78125 8H17.7188C18.1496 8 18.5 7.64958 18.5 7.21875V6.28125C18.5 5.85042 18.1496 5.5 17.7188 5.5H7.78125ZM7.78125 8.5C7.35042 8.5 7 8.85042 7 9.28125V10.2188C7 10.6496 7.35042 11 7.78125 11H17.7188C18.1496 11 18.5 10.6496 18.5 10.2188V9.28125C18.5 8.85042 18.1496 8.5 17.7188 8.5H7.78125Z" stroke="#514FB5"/>
</svg>
