<svg width="24" height="26" viewBox="0 0 24 26" fill="none" xmlns="http://www.w3.org/2000/svg">
<path d="M22.5 25V22.3333C22.5 20.9188 21.9469 19.5623 20.9623 18.5621C19.9777 17.5619 18.6424 17 17.25 17H6.75C5.35761 17 4.02226 17.5619 3.03769 18.5621C2.05312 19.5623 1.5 20.9188 1.5 22.3333V25" fill="#514FB5"/>
<path d="M22.5 25V22.3333C22.5 20.9188 21.9469 19.5623 20.9623 18.5621C19.9777 17.5619 18.6424 17 17.25 17H6.75C5.35761 17 4.02226 17.5619 3.03769 18.5621C2.05312 19.5623 1.5 20.9188 1.5 22.3333V25H22.5Z" stroke="#514FB5" stroke-width="1.5" stroke-linecap="round" stroke-linejoin="round"/>
<path d="M12 11.6667C14.8995 11.6667 17.25 9.27885 17.25 6.33333C17.25 3.38781 14.8995 1 12 1C9.1005 1 6.75 3.38781 6.75 6.33333C6.75 9.27885 9.1005 11.6667 12 11.6667Z" fill="#514FB5" stroke="#514FB5" stroke-width="1.5" stroke-linecap="round" stroke-linejoin="round"/>
</svg>
