<svg width="24" height="24" viewBox="0 0 24 24" fill="none" xmlns="http://www.w3.org/2000/svg">
<path d="M10.0815 21.5909C10.179 22.9949 11.5095 24.0794 12.9435 23.7209L13.335 23.6234C13.6941 23.5395 14.0243 23.3611 14.2912 23.1065C14.5581 22.852 14.7521 22.5307 14.853 22.1759C15.183 20.9519 15.6525 18.4079 14.946 15.4109C15.15 15.4409 15.3735 15.4664 15.6105 15.4874C16.68 15.5849 18.114 15.5939 19.3845 15.1709C20.1615 14.9114 20.8755 14.1509 21.1845 13.2629C21.3392 12.8331 21.388 12.3723 21.3269 11.9195C21.2658 11.4668 21.0966 11.0354 20.8335 10.6619C20.9205 10.4849 20.988 10.2989 21.0405 10.1189C21.156 9.71394 21.21 9.26694 21.21 8.83494C21.21 8.39994 21.156 7.95594 21.0405 7.54944C20.9816 7.34017 20.9012 7.13759 20.8005 6.94494C21.054 6.36444 20.961 5.71494 20.796 5.22144C20.6269 4.73466 20.3797 4.27869 20.064 3.87144C20.145 3.64194 20.178 3.40194 20.178 3.17394C20.1715 2.69284 20.0408 2.22159 19.7985 1.80594C19.2975 0.925436 18.303 0.209936 16.8975 0.209936H11.6475C10.74 0.209936 10.0425 0.329936 9.44846 0.535436C8.93765 0.722463 8.44957 0.966506 7.99346 1.26294L7.92146 1.30644C7.16546 1.76844 6.42296 2.22144 4.81946 2.39094C3.67046 2.51244 2.64746 3.44094 2.64746 4.70844V10.7084C2.64746 11.9849 3.67496 12.8579 4.68296 13.1324C5.95646 13.4804 7.04396 14.3129 7.88096 15.2474C8.72096 16.1864 9.25196 17.1674 9.43946 17.7044C9.73796 18.5669 9.97346 20.0144 10.0815 21.5909Z" fill="#514FB5"/>
</svg>
