<svg width="24" height="24" viewBox="0 0 24 24" fill="none" xmlns="http://www.w3.org/2000/svg">
<g clip-path="url(#clip0_543_3749)">
<path d="M11.5 24.0013C12.2956 24.0013 13.0587 23.6852 13.6213 23.1226C14.1839 22.56 14.5 21.797 14.5 21.0013H8.5C8.5 21.797 8.81607 22.56 9.37868 23.1226C9.94129 23.6852 10.7044 24.0013 11.5 24.0013ZM20.83 18.0013C21.1645 18.6718 21.5515 19.2028 22 19.5013H1C1.4485 19.2028 1.8355 18.6718 2.17 18.0013C3.52 15.3013 4 10.3213 4 9.00131C4 5.37131 6.58 2.34131 10.0075 1.64981C9.98656 1.44124 10.0096 1.2306 10.0751 1.03147C10.1405 0.832343 10.247 0.649147 10.3876 0.4937C10.5283 0.338252 10.6999 0.214004 10.8915 0.128969C11.0831 0.0439342 11.2904 0 11.5 0C11.7096 0 11.9169 0.0439342 12.1085 0.128969C12.3001 0.214004 12.4717 0.338252 12.6124 0.4937C12.753 0.649147 12.8595 0.832343 12.9249 1.03147C12.9904 1.2306 13.0134 1.44124 12.9925 1.64981C14.6879 1.99466 16.2121 2.91485 17.3069 4.25456C18.4016 5.59427 18.9998 7.27117 19 9.00131C19 10.3213 19.48 15.3013 20.83 18.0013Z" fill="#514FB5"/>
</g>
<defs>
<clipPath id="clip0_543_3749">
<rect width="24" height="24.0013" fill="white"/>
</clipPath>
</defs>
</svg>
