<svg width="24" height="24" viewBox="0 0 24 24" fill="none" xmlns="http://www.w3.org/2000/svg">
<path d="M11.5014 0.790421L11.5013 0.790427L11.5024 0.796464L11.5027 0.798187C11.5228 0.916415 11.7096 2.01411 11.8918 3.28209C12.0768 4.57011 12.25 5.98822 12.25 6.75005C12.25 9.00162 11.0688 10.5557 9.34887 11.1835L9.00099 11.3104L9.02103 11.6802L9.62563 22.8396C9.62564 22.8398 9.62565 22.84 9.62566 22.8402C9.64364 23.1986 9.35825 23.5 8.99998 23.5H5.99999C5.64388 23.5 5.35645 23.2007 5.37431 22.8402C5.37433 22.8399 5.37434 22.8396 5.37435 22.8394L5.97895 11.6802L5.999 11.3101L5.65073 11.1833C3.92717 10.5558 2.75 8.99778 2.75 6.75005C2.75 5.98587 2.92319 4.56771 3.1082 3.28036C3.28944 2.01918 3.47534 0.927187 3.497 0.799988L3.4976 0.796465L3.49763 0.796471L3.49859 0.790421C3.50699 0.737135 3.53967 0.673351 3.65032 0.609924C3.76708 0.542994 3.94051 0.498332 4.13344 0.500047C4.32664 0.501765 4.49484 0.54952 4.60527 0.618019C4.69609 0.674361 4.73629 0.734378 4.74999 0.80152V7.38286V7.47519L4.78297 7.56143C4.84383 7.72062 4.95849 7.81237 5.03361 7.85916C5.11193 7.90795 5.1918 7.93611 5.25454 7.95334C5.38105 7.98808 5.51717 7.99966 5.63538 7.99886C5.75339 7.99807 5.88823 7.98472 6.01217 7.94896C6.07307 7.93139 6.15353 7.90217 6.23201 7.85079C6.30603 7.80234 6.43039 7.69932 6.48132 7.51823L6.49619 7.46534L6.49923 7.41048C6.52887 6.8748 6.60812 5.47725 6.68621 4.10012C6.77299 2.56979 6.85834 1.06467 6.8726 0.795441C6.88724 0.735374 6.92785 0.675114 7.02455 0.617911C7.13879 0.550335 7.30855 0.504754 7.4994 0.504754C7.6903 0.504754 7.85949 0.550353 7.97284 0.617593C8.07005 0.675262 8.10952 0.735763 8.12311 0.796125L8.1262 0.847882L8.13724 1.03804L8.17442 1.68955C8.20488 2.22586 8.24531 2.9415 8.28749 3.69029C8.37187 5.18796 8.46326 6.8178 8.49606 7.41048L8.49909 7.46534L8.51397 7.51823C8.56519 7.70035 8.6907 7.80342 8.76451 7.85147C8.84306 7.90262 8.92356 7.93168 8.98446 7.94916C9.10847 7.98474 9.24349 7.99807 9.36168 7.99886C9.4799 7.99965 9.61641 7.98814 9.74311 7.95323C9.80582 7.93595 9.88657 7.90745 9.96563 7.85752C10.0416 7.80956 10.1585 7.71438 10.2168 7.54927L10.2453 7.46851V7.38286V0.801847C10.2588 0.736647 10.2985 0.677015 10.39 0.620453C10.5013 0.551708 10.6706 0.503737 10.8647 0.5018C11.0587 0.499865 11.2328 0.544358 11.3499 0.611137C11.4608 0.674402 11.4931 0.737826 11.5014 0.790421ZM18.0811 14.1451L18.1029 13.8767L17.8908 13.7109C16.1354 12.338 15.2392 10.8346 14.9071 9.3698C14.5737 7.89952 14.7987 6.42343 15.3628 5.09645C15.9279 3.76718 16.8265 2.60527 17.8083 1.77979C18.8013 0.94486 19.8224 0.500067 20.625 0.500067C20.9709 0.500067 21.2499 0.7811 21.2499 1.12506V22.875C21.2499 23.2223 20.9722 23.5 20.625 23.5H18C17.635 23.5 17.3467 23.1866 17.3778 22.824L17.378 22.8216L18.0811 14.1451Z" stroke="#514FB5"/>
</svg>
