<svg width="24" height="24" viewBox="0 0 24 24" fill="none" xmlns="http://www.w3.org/2000/svg">
<g clip-path="url(#clip0_543_3734)">
<path d="M3 0.530334C2.20435 0.530334 1.44129 0.846405 0.87868 1.40901C0.316071 1.97162 0 2.73468 0 3.53033L0 22.7198C3.15223e-05 22.8682 0.0440889 23.0133 0.126596 23.1366C0.209103 23.26 0.32635 23.3561 0.463499 23.4128C0.600648 23.4695 0.751531 23.4842 0.897054 23.4551C1.04258 23.426 1.1762 23.3544 1.281 23.2493L5.5605 18.9698C5.84174 18.6885 6.22321 18.5304 6.621 18.5303H21C21.7956 18.5303 22.5587 18.2143 23.1213 17.6517C23.6839 17.089 24 16.326 24 15.5303V3.53033C24 2.73468 23.6839 1.97162 23.1213 1.40901C22.5587 0.846405 21.7956 0.530334 21 0.530334L3 0.530334Z" fill="#514FB5"/>
</g>
<defs>
<clipPath id="clip0_543_3734">
<rect width="24" height="24" fill="white"/>
</clipPath>
</defs>
</svg>
