<svg width="24" height="24" viewBox="0 0 24 24" fill="none" xmlns="http://www.w3.org/2000/svg">
<path d="M10.0824 2.40806C10.1799 1.00556 11.5104 -0.0789428 12.9444 0.278057L13.3359 0.377057C14.0304 0.551057 14.6469 1.06106 14.8539 1.82456C15.1839 3.04856 15.6534 5.59106 14.9469 8.58956C15.1678 8.55904 15.3894 8.53354 15.6114 8.51306C16.6809 8.41556 18.1149 8.40506 19.3854 8.82806C20.1624 9.08756 20.8764 9.84956 21.1854 10.7376C21.4614 11.5356 21.4254 12.4806 20.8344 13.3371C20.9214 13.5156 20.9889 13.7001 21.0414 13.8816C21.1569 14.2866 21.2109 14.7321 21.2109 15.1656C21.2109 15.5991 21.1569 16.0446 21.0414 16.4496C20.9829 16.6521 20.9064 16.8591 20.8014 17.0556C21.0549 17.6361 20.9619 18.2841 20.7969 18.7776C20.628 19.2648 20.3808 19.7213 20.0649 20.1291C20.1459 20.3571 20.1789 20.5971 20.1789 20.8266C20.1789 21.2841 20.0454 21.7641 19.7994 22.1946C19.2984 23.0736 18.3039 23.7906 16.8984 23.7906H11.6484C10.7409 23.7906 10.0434 23.6691 9.44944 23.4636C8.93868 23.277 8.45059 23.0335 7.99444 22.7376L7.92244 22.6926C7.16644 22.2321 6.42394 21.7791 4.82044 21.6096C3.67144 21.4866 2.64844 20.5596 2.64844 19.2906V13.2906C2.64844 12.0156 3.67594 11.1426 4.68394 10.8681C5.95744 10.5201 7.04494 9.68756 7.88194 8.75306C8.72194 7.81256 9.25294 6.83306 9.44044 6.29456C9.73894 5.43206 9.97444 3.98606 10.0824 2.40956V2.40806Z" fill="#514FB5"/>
</svg>
