<svg width="24" height="24" viewBox="0 0 24 24" fill="none" xmlns="http://www.w3.org/2000/svg">
<g clip-path="url(#clip0_368_2444)">
<path d="M4.85355 18.2629L4.85361 18.2628C5.32231 17.794 5.95805 17.5305 6.621 17.5303C6.62104 17.5303 6.62107 17.5303 6.62111 17.5303H21C21.5304 17.5303 22.0391 17.3196 22.4142 16.9446C22.7893 16.5695 23 16.0608 23 15.5303V3.53033C23 2.9999 22.7893 2.49119 22.4142 2.11612C22.0391 1.74105 21.5304 1.53033 21 1.53033H3C2.46957 1.53033 1.96086 1.74105 1.58579 2.11612C1.21071 2.49119 1 2.9999 1 3.53033V20.9093V22.1164L1.85355 21.2629L4.85355 18.2629ZM0.927446 22.8958L0.926999 22.8962C0.892065 22.9313 0.847526 22.9551 0.799022 22.9648C0.750512 22.9745 0.700216 22.9696 0.6545 22.9507C0.608784 22.9318 0.569701 22.8998 0.542199 22.8587C0.514715 22.8176 0.500032 22.7693 0.5 22.7198C0.5 22.7198 0.5 22.7198 0.5 22.7197V3.53033C0.5 2.86729 0.763392 2.23141 1.23223 1.76257C1.70107 1.29373 2.33696 1.03033 3 1.03033H21C21.663 1.03033 22.2989 1.29373 22.7678 1.76257C23.2366 2.23141 23.5 2.86729 23.5 3.53033V15.5303C23.5 16.1934 23.2366 16.8293 22.7678 17.2981C22.2989 17.7669 21.663 18.0303 21 18.0303H6.621H6.62089C6.0905 18.0305 5.58188 18.2412 5.20689 18.6163L0.927446 22.8958Z" stroke="#514FB5"/>
</g>
<defs>
<clipPath id="clip0_368_2444">
<rect width="24" height="24" fill="white"/>
</clipPath>
</defs>
</svg>
