<svg width="24" height="24" viewBox="0 0 24 24" fill="none" xmlns="http://www.w3.org/2000/svg">
<path d="M12.9444 23.7207C11.5104 24.0807 10.1799 22.9947 10.0824 21.5907C9.97444 20.0157 9.73744 18.5682 9.44044 17.7057C9.25294 17.1657 8.72194 16.1877 7.88044 15.2487C7.04494 14.3127 5.95744 13.4802 4.68394 13.1337C3.67594 12.8577 2.64844 11.9847 2.64844 10.7097V4.70971C2.64844 3.44221 3.67144 2.51371 4.82044 2.39071C6.42544 2.22121 7.16644 1.76821 7.92244 1.30621L7.99444 1.26271C8.40244 1.01371 8.86144 0.739213 9.44944 0.536713C10.0449 0.329713 10.7409 0.209713 11.6484 0.209713H16.8984C18.3039 0.209713 19.2969 0.926713 19.7994 1.80571C20.0454 2.23621 20.1804 2.71621 20.1804 3.17521C20.1804 3.40321 20.1459 3.64321 20.0649 3.87121C20.3664 4.26421 20.6349 4.73671 20.7969 5.22121C20.9619 5.71621 21.0549 6.36421 20.8029 6.94621C20.9064 7.14121 20.9829 7.34821 21.0414 7.55071C21.1569 7.95571 21.2109 8.40121 21.2109 8.83471C21.2109 9.26821 21.1569 9.71371 21.0414 10.1187C20.9889 10.2987 20.9214 10.4847 20.8344 10.6632C21.4254 11.5197 21.4614 12.4632 21.1854 13.2627C20.8764 14.1507 20.1624 14.9127 19.3854 15.1707C18.1149 15.5952 16.6809 15.5847 15.6114 15.4872C15.3894 15.4672 15.1678 15.4422 14.9469 15.4122C15.4676 17.6411 15.4357 19.9635 14.8539 22.1772C14.6469 22.9392 14.0289 23.4492 13.3359 23.6232L12.9444 23.7207ZM16.8984 1.70971H11.6484C10.8834 1.70971 10.3539 1.81171 9.93844 1.95421C9.51694 2.09971 9.17944 2.29771 8.77444 2.54371L8.71444 2.58121C7.88194 3.08821 6.91744 3.67621 4.97944 3.88321C4.47994 3.93571 4.14844 4.31821 4.14844 4.70821V10.7097C4.14844 11.0922 4.48744 11.5242 5.07844 11.6847C6.72094 12.1347 8.04394 13.1802 8.99944 14.2482C9.95194 15.3132 10.5954 16.4607 10.8564 17.2137C11.2209 18.2637 11.4669 19.8657 11.5794 21.4887C11.6169 22.0317 12.1194 22.3812 12.5799 22.2657L12.9729 22.1682C13.2129 22.1082 13.3599 21.9522 13.4049 21.7857C14.0178 19.4512 13.9423 16.9893 13.1874 14.6967C13.1451 14.5693 13.1377 14.4329 13.1661 14.3017C13.1944 14.1705 13.2575 14.0492 13.3487 13.9507C13.4398 13.8522 13.5558 13.7799 13.6844 13.7415C13.8131 13.7031 13.9496 13.6999 14.0799 13.7322H14.0844L14.1054 13.7382L14.1924 13.7577C14.7054 13.8666 15.2243 13.9453 15.7464 13.9932C16.7409 14.0832 17.9319 14.0742 18.9114 13.7487C19.1739 13.6602 19.5864 13.2972 19.7664 12.7722C19.9269 12.3102 19.8969 11.7672 19.3674 11.2407L18.8379 10.7097L19.3674 10.1787C19.4319 10.1157 19.5249 9.96871 19.5984 9.70621C19.6704 9.45571 19.7109 9.15121 19.7109 8.83471C19.7109 8.51821 19.6704 8.21371 19.5984 7.96321C19.5234 7.70221 19.4319 7.55371 19.3674 7.49071L18.8379 6.95971L19.3674 6.42871C19.4379 6.35821 19.5309 6.16471 19.3749 5.69671C19.2122 5.24487 18.9538 4.8335 18.6174 4.49071L18.0879 3.95971L18.6174 3.42871C18.6264 3.42121 18.6789 3.35371 18.6789 3.17371C18.672 2.95421 18.6096 2.74003 18.4974 2.55121C18.2484 2.11771 17.7429 1.70971 16.8984 1.70971Z" fill="#514FB5"/>
</svg>
